<svg width="61" height="27" viewBox="0 0 61 27" fill="none" xmlns="http://www.w3.org/2000/svg">
<path fill-rule="evenodd" clip-rule="evenodd" d="M0 9.14453L5.10651 18.7141L0 25.0002V9.14453Z" fill="#F15A23"/>
<path fill-rule="evenodd" clip-rule="evenodd" d="M2.05518 24.9998L5.89757 20.2246L8.55334 24.9998H2.05518Z" fill="#F15A23"/>
<path fill-rule="evenodd" clip-rule="evenodd" d="M0 4.02385L1.33261 6.52806L6.81179 16.6993L8.58726 14.5989C8.58726 14.5989 7.11331 12.021 6.12361 9.14438C4.18864 3.52019 5.55855 0.0185547 5.55855 0.0185547H0V4.02385Z" fill="#F15A23"/>
<path fill-rule="evenodd" clip-rule="evenodd" d="M7.59277 18.2695L9.40096 16.0508C9.40096 16.0508 11.1279 19.4279 13.1303 20.225C15.7544 21.2695 16.9162 18.714 16.9162 18.714V25.0001H11.1526L12.4523 23.3309C12.4523 23.3309 11.7742 24.0024 10.1158 22.296C9.13706 21.2888 7.59277 18.2695 7.59277 18.2695Z" fill="#F15A23"/>
<path fill-rule="evenodd" clip-rule="evenodd" d="M7.75907 0C7.75907 0 7.18223 1.16736 7.59283 4.02361C8.03171 7.07655 9.77713 10.3077 9.77308 10.2354C9.77308 10.2354 9.88529 7.02697 11.1527 5.14415C13.8542 1.1309 16.9163 3.51995 16.9163 3.51995V0.0183166L7.75907 0Z" fill="#F15A23"/>
<path fill-rule="evenodd" clip-rule="evenodd" d="M16.9163 7.75105C16.9163 7.75105 15.2079 5.57715 13.7225 5.57715C11.8225 5.57715 10.7854 8.01403 10.7854 9.78172C10.7854 12.3565 11.6173 13.7872 12.4523 15.0276C13.6523 16.8102 15.1121 18.7328 16.9163 17.1854C16.9163 14.2567 16.9163 7.75105 16.9163 7.75105Z" fill="#F15A23"/>
<path fill-rule="evenodd" clip-rule="evenodd" d="M36.3726 0.261719H40.404C40.404 0.261719 43.9754 8.295 45.7305 11.614C47.4857 14.933 49.3749 18.7135 49.3749 18.7135C49.3749 18.7135 49.3749 7.75057 49.3749 2.06076C49.3749 1.34155 48.1037 0.261719 48.1037 0.261719H52.7526C52.7526 0.261719 51.2272 1.19274 51.2272 2.06076C51.2272 9.14396 51.2272 26.2866 51.2272 26.2866C51.2272 26.2866 49.7635 25.0808 48.1037 22.2156C46.2389 18.9964 39.605 5.99948 39.605 5.99948C39.605 5.99948 39.605 18.269 39.605 22.8334C39.605 23.6956 40.8762 24.9996 40.8762 24.9996H36.3726C36.3726 24.9996 37.6074 23.685 37.6074 22.8334C37.6074 16.6989 37.6074 7.75057 37.6074 2.06076C37.6074 1.29629 36.3726 0.261719 36.3726 0.261719Z" fill="#005E6A"/>
<path fill-rule="evenodd" clip-rule="evenodd" d="M55.3564 0.261719H60.5305C60.5305 0.261719 59.1412 1.23937 59.1412 2.06076C59.1412 7.75057 59.1412 17.1849 59.1412 22.8334C59.1412 23.7311 60.5305 24.9996 60.5305 24.9996H55.3564C55.3564 24.9996 56.65 23.7022 56.65 22.8334C56.65 16.0503 56.65 7.75057 56.65 2.06076C56.65 1.27106 55.3564 0.261719 55.3564 0.261719Z" fill="#005E6A"/>
<path fill-rule="evenodd" clip-rule="evenodd" d="M21.1499 0.261719C21.1499 0.261719 22.4913 1.25535 22.4913 2.06076C22.4913 7.75057 22.4913 16.0503 22.4913 22.8334C22.4913 23.7165 21.1499 24.9996 21.1499 24.9996C21.1499 24.9996 27.8514 24.9996 28.8152 24.9996C29.2943 24.9996 34.6601 23.6962 34.6601 17.5508C34.6601 11.4053 30.492 10.8299 30.492 10.8299C30.492 10.8299 33.0312 9.78124 33.0312 5.57667C33.0312 1.0446 29.2943 0.261719 28.8152 0.261719C27.8196 0.261719 21.1499 0.261719 21.1499 0.261719ZM25.2221 10.4226V2.6888C25.2221 2.6888 27.444 2.6888 28.3362 2.6888C28.8152 2.6888 30.492 3.51977 30.492 6.6028C30.492 9.14397 28.8152 10.4226 28.3362 10.4226C27.25 10.4226 25.2221 10.4226 25.2221 10.4226ZM25.2221 12.451C25.2221 12.451 28.3362 12.451 28.8152 12.451C29.2943 12.451 32.1209 13.5417 32.1209 17.1849C32.1209 20.8993 29.2943 22.2156 28.8152 22.2156C28.3362 22.2156 25.2221 22.2156 25.2221 22.2156V12.451Z" fill="#005E6A"/>
</svg>
