<svg width="66" height="19" viewBox="0 0 66 19" fill="none" xmlns="http://www.w3.org/2000/svg">
<path fill-rule="evenodd" clip-rule="evenodd" d="M26.089 14.4108C27.3434 14.5012 28.8051 13.5201 29.3199 12.96C31.1099 11.0099 31.1531 8.18995 29.351 6.14765C28.6807 5.38744 27.105 4.54721 26.108 4.6655H22.4988V14.3986L26.0977 14.4108H26.089ZM24.5341 12.3024V6.76173C25.099 6.72441 25.6658 6.72441 26.2307 6.76173C26.6752 6.81363 27.0992 6.97889 27.4626 7.24186C29.5359 8.66834 28.672 12.0693 26.1962 12.2972C25.6429 12.3363 25.0876 12.3381 24.5341 12.3024Z" fill="#008CEB"/>
<path fill-rule="evenodd" clip-rule="evenodd" d="M57.7742 14.4278H59.832V12.3298H63.9147L63.9268 14.4173H65.9845V10.959C65.9845 9.91522 66.0709 8.61399 65.8117 7.66939C65.5763 6.80462 65.0665 6.04112 64.3599 5.49534C63.6534 4.94956 62.7889 4.65147 61.8983 4.64655C61.0078 4.64162 60.1401 4.93012 59.4277 5.46805C58.7152 6.00597 58.197 6.76379 57.9522 7.6259C57.6758 8.55833 57.7691 9.89609 57.7691 10.9312C57.7691 12.1002 57.757 13.2761 57.7691 14.4452L57.7742 14.4278ZM59.8337 10.2197C59.8216 9.34985 59.7301 8.41916 60.1361 7.74941C60.3143 7.44106 60.5704 7.18574 60.8785 7.00943C61.1865 6.83312 61.5354 6.74211 61.8897 6.74565C62.2422 6.74827 62.588 6.84294 62.8933 7.0204C63.1985 7.19787 63.4528 7.45205 63.6313 7.75811C64.0321 8.45395 63.9371 9.32375 63.9268 10.2214L59.8337 10.2197Z" fill="#008CEB"/>
<path fill-rule="evenodd" clip-rule="evenodd" d="M34.2422 14.4264H36.293C36.293 13.988 36.2377 12.6468 36.312 12.3285H40.3791L40.3929 14.4247H42.4472C42.4369 13.2626 42.4472 12.1023 42.4472 10.9455C42.4472 9.95389 42.5388 8.53437 42.2745 7.65413C42.0376 6.79049 41.527 6.02842 40.8203 5.48392C40.1136 4.93941 39.2496 4.64228 38.3598 4.63775C37.4699 4.63322 36.603 4.92154 35.8908 5.45882C35.1787 5.99611 34.6605 6.75293 34.4149 7.61412C34.1402 8.51871 34.2335 9.9017 34.2335 10.9089C34.2335 12.071 34.2076 13.2626 34.2335 14.4212L34.2422 14.4264ZM36.2947 10.22C36.2809 9.35025 36.1928 8.40738 36.5988 7.75155C36.777 7.444 37.0321 7.18884 37.3387 7.0115C37.6454 6.83416 37.9928 6.74085 38.3464 6.74085C38.7001 6.74085 39.0475 6.83416 39.3541 7.0115C39.6608 7.18884 39.9159 7.444 40.094 7.75155C40.4966 8.44739 40.3999 9.33111 40.3929 10.2166L36.2947 10.22Z" fill="#008CEB"/>
<path fill-rule="evenodd" clip-rule="evenodd" d="M46.0565 8.46664L46.0271 9.91574C46.0271 11.1335 45.9683 13.4071 46.0271 14.397H48.0382C48.0848 13.7011 47.9656 8.7589 48.0917 8.60059C48.0917 7.64033 49.0887 6.74617 50.0942 6.74269C50.6169 6.73952 51.1202 6.94173 51.4971 7.30632C51.7528 7.54117 52.145 8.07697 52.1381 8.61799C52.2314 8.67192 52.1571 13.8368 52.1865 14.4091H54.1993L54.1838 8.50317C54.2339 8.04044 53.9575 7.32546 53.7795 6.96362C53.4495 6.27418 52.9343 5.69155 52.2924 5.28171C51.6504 4.87187 50.9073 4.6512 50.1473 4.64468C49.3872 4.63816 48.6404 4.84606 47.9917 5.24483C47.3429 5.6436 46.8179 6.21731 46.4763 6.90099C46.3035 7.25761 46.0133 7.99173 46.0565 8.46664Z" fill="#008CEB"/>
<path d="M9.43524 19C14.6462 19 18.8705 14.7467 18.8705 9.5C18.8705 4.25329 14.6462 0 9.43524 0C4.2243 0 0 4.25329 0 9.5C0 14.7467 4.2243 19 9.43524 19Z" fill="#008CEB"/>
<path d="M14.9331 9.54008V12.2139C14.9331 12.3878 14.8588 12.4243 14.7136 12.3391C14.5195 12.2218 14.3174 12.1183 14.1089 12.0295C13.4792 11.7769 12.7971 11.6854 12.1237 11.7633C11.3887 11.8593 10.6674 12.0414 9.97441 12.3061C9.28331 12.5409 8.60604 12.7949 7.90112 12.9915C7.31726 13.166 6.70964 13.2465 6.1008 13.2298C5.42606 13.2034 4.77031 12.9975 4.20028 12.6331C4.12866 12.5897 4.06989 12.5277 4.03009 12.4537C3.99029 12.3797 3.9709 12.2962 3.97394 12.2121C3.97394 10.4609 3.97394 8.7097 3.97394 6.9585C3.97394 6.87326 3.97394 6.77236 4.04996 6.72887C4.12598 6.68538 4.20373 6.7567 4.26939 6.80019C4.88838 7.22161 5.62151 7.44032 6.3686 7.42645C6.90279 7.40439 7.43109 7.30538 7.9374 7.13246C8.65614 6.90805 9.3507 6.61058 10.0573 6.35833C10.6074 6.14548 11.1714 5.97111 11.7454 5.83645C12.2379 5.72031 12.749 5.70811 13.2465 5.80063C13.744 5.89314 14.217 6.08836 14.6359 6.37399C14.7319 6.43323 14.8105 6.51715 14.8637 6.61713C14.9168 6.71711 14.9426 6.82953 14.9382 6.94284C14.9382 7.81264 14.9382 8.68245 14.9382 9.55225L14.9331 9.54008Z" fill="#FEFEFE"/>
</svg>
