<svg width="64" height="22" viewBox="0 0 64 22" fill="none" xmlns="http://www.w3.org/2000/svg">
<g clip-path="url(#clip0_308_1747)">
<path fill-rule="evenodd" clip-rule="evenodd" d="M0 0H64.0014V22.0028H0V0Z" fill="white" fill-opacity="0.01"/>
<path d="M6.91927 20.4314C10.7407 20.4314 13.8385 16.2096 13.8385 11.0018C13.8385 5.79403 10.7407 1.57227 6.91927 1.57227C3.09786 1.57227 0 5.79403 0 11.0018C0 16.2096 3.09786 20.4314 6.91927 20.4314Z" fill="#00AED6"/>
<path fill-rule="evenodd" clip-rule="evenodd" d="M10.9514 10.7085C10.9285 10.1349 10.7395 9.5966 10.4253 9.21044C10.1111 8.82427 9.69712 8.62137 9.27313 8.64573H4.90274C4.86472 8.64555 4.8271 8.63523 4.79202 8.61537C4.75694 8.59551 4.7251 8.56649 4.69831 8.52997C4.67152 8.49345 4.6503 8.45014 4.63588 8.40252C4.62145 8.3549 4.61409 8.3039 4.61423 8.25243C4.61423 8.03515 4.74325 7.85913 4.90274 7.85913H9.33103C9.31999 7.46297 9.21638 7.08176 9.0351 6.77039C8.85382 6.45902 8.60422 6.23354 8.32225 6.12641C7.03201 5.81594 5.71144 5.81594 4.42121 6.12641C4.0618 6.24826 3.73772 6.51348 3.491 6.88766C3.24428 7.26185 3.08631 7.72774 3.03756 8.22493C2.83286 10.0757 2.83286 11.9574 3.03756 13.8081C3.11259 14.3328 3.30348 14.8143 3.585 15.189C3.86652 15.5637 4.22541 15.814 4.61423 15.9067C6.21581 16.1778 7.83611 16.1778 9.4377 15.9067C9.786 15.8083 10.1026 15.5642 10.3427 15.2088C10.5829 14.8534 10.7343 14.4048 10.7756 13.9264C10.9179 12.8648 10.9778 11.7866 10.9514 10.7085ZM9.51593 12.0287V12.378C9.51606 12.4294 9.5087 12.4804 9.49428 12.528C9.47985 12.5757 9.45863 12.619 9.43184 12.6555C9.40505 12.692 9.37321 12.721 9.33813 12.7409C9.30306 12.7608 9.26543 12.7711 9.22741 12.7713C9.18939 12.7711 9.15177 12.7608 9.11669 12.7409C9.08161 12.721 9.04977 12.692 9.02298 12.6555C8.99619 12.619 8.97497 12.5757 8.96055 12.528C8.94612 12.4804 8.93876 12.4294 8.9389 12.378V12.0287C8.87318 11.9495 8.8268 11.8452 8.80589 11.7295C8.78499 11.6139 8.79055 11.4923 8.82185 11.3811C8.85315 11.2698 8.90869 11.174 8.98112 11.1065C9.05356 11.0389 9.13945 11.0027 9.22741 11.0028C9.31537 11.0027 9.40127 11.0389 9.4737 11.1065C9.54613 11.174 9.60168 11.2698 9.63297 11.3811C9.66427 11.4923 9.66983 11.6139 9.64893 11.7295C9.62802 11.8452 9.58164 11.9495 9.51593 12.0287Z" fill="white"/>
<path d="M19.2411 15.6904C19.5285 16.2511 19.9167 16.7033 20.3691 17.0046C20.8214 17.3058 21.323 17.4461 21.8265 17.4121C23.0324 17.4121 23.9182 16.3629 23.9182 14.9368V14.1846H23.8888C23.2285 15.0647 22.3274 15.524 21.4059 15.4525C20.6893 15.4792 19.9805 15.2459 19.353 14.7768C18.7254 14.3077 18.2021 13.6199 17.8371 12.7847C17.4697 11.947 17.2726 10.9926 17.266 10.0185C17.2594 9.04435 17.4435 8.08522 17.7995 7.23859C18.1535 6.39484 18.6678 5.69463 19.2891 5.21055C19.9104 4.72647 20.616 4.47613 21.3328 4.48549C21.798 4.44515 22.2644 4.53307 22.7037 4.74392C23.1431 4.95477 23.5462 5.28416 23.8888 5.71215H23.9182V4.68351H25.9805V14.8983C25.9805 17.8673 24.2535 19.926 21.8265 19.926C21.0421 19.9833 20.2589 19.7869 19.5416 19.3531C18.8244 18.9193 18.1938 18.2606 17.702 17.4314L19.2411 15.6904ZM23.8319 9.33436C23.8319 8.14758 22.8434 7.05844 21.7402 7.05844C20.3453 7.05844 19.4158 8.20671 19.4158 9.92843C19.3752 10.7453 19.5987 11.5443 20.0304 12.1122C20.2429 12.393 20.4983 12.6071 20.7787 12.7394C21.059 12.8718 21.3574 12.9192 21.6528 12.8782C22.8587 12.8782 23.8319 11.8496 23.8319 10.5624V9.33436ZM31.4105 4.38648C33.9238 4.38648 35.7545 6.82054 35.7545 9.92843C35.7545 13.0363 33.9238 15.4718 31.4105 15.4718C30.6651 15.537 29.9208 15.3232 29.2592 14.8538C28.5977 14.3845 28.0443 13.6776 27.6598 12.8108C27.2729 11.9408 27.0685 10.9446 27.0685 9.92912C27.0685 8.91367 27.2729 7.91742 27.6598 7.04744C28.0443 6.18059 28.5977 5.47376 29.2592 5.00439C29.9208 4.53502 30.6651 4.32124 31.4105 4.38648ZM31.4105 6.95805C30.8314 6.96604 30.2782 7.28476 29.8726 7.84424C29.4669 8.40372 29.2417 9.15824 29.2466 9.94218C29.2472 10.7261 29.4775 11.4777 29.8869 12.032C30.2964 12.5863 30.8517 12.8981 31.4308 12.8988C32.0099 12.8944 32.5641 12.5792 32.9717 12.0223C33.3793 11.4654 33.607 10.7124 33.6048 9.92843C33.6183 9.53223 33.5706 9.13658 33.4647 8.76674C33.3589 8.39689 33.1973 8.06097 32.9902 7.78041C32.7842 7.50118 32.5371 7.28378 32.2649 7.14234C31.9927 7.00089 31.7016 6.9372 31.4105 6.95805ZM36.8699 4.68351H38.9322V5.61313H38.9627C39.2955 5.19545 39.6865 4.87182 40.1128 4.6612C40.5391 4.45057 40.9922 4.35717 41.4455 4.38648C43.6602 4.44148 45.4359 6.9003 45.44 9.9188C45.4441 12.9387 43.6744 15.4058 41.4597 15.4718C40.5861 15.4993 39.7327 15.1073 39.049 14.3634H39.0195V19.6289H36.8699V4.68351ZM41.1123 6.98006C39.9785 6.98006 39.0195 8.06782 39.0195 9.25597V10.5816C39.0195 11.8496 39.9501 12.8974 41.1255 12.8974C41.7033 12.8923 42.2559 12.5769 42.6618 12.0204C43.0678 11.4639 43.2939 10.7119 43.2904 9.92981C43.2905 9.54244 43.2343 9.15883 43.1249 8.80088C43.0155 8.44293 42.8551 8.11765 42.6528 7.84362C42.4506 7.56958 42.2104 7.35215 41.9461 7.20374C41.6818 7.05534 41.3985 6.97886 41.1123 6.97868V6.98006ZM49.5818 8.91905C50.9909 8.6619 51.4125 8.38549 51.4125 7.85054C51.4125 7.15745 50.874 6.74215 50.0471 6.74215C49.6142 6.69379 49.1829 6.85676 48.8311 7.20156C48.4793 7.54637 48.2302 8.05024 48.1291 8.62201L46.0953 8.04857C46.3858 5.91017 47.999 4.38648 49.9882 4.38648C52.2394 4.38648 53.6352 5.95005 53.6352 8.50238V15.1747H51.702V14.0265H51.6715C51.3496 14.522 50.9475 14.9102 50.4966 15.1609C50.0457 15.4116 49.5581 15.518 49.0718 15.4718C47.3722 15.4718 46.1968 14.2052 46.1968 12.3432C46.1968 10.3836 47.1559 9.37424 49.5818 8.91905ZM51.5862 10.0274H51.5577C51.3678 10.4042 50.9614 10.6215 49.916 10.8801C48.6523 11.1963 48.2022 11.5319 48.2022 12.1452C48.2022 12.7792 48.5801 13.057 49.3929 13.057C50.6282 13.057 51.5872 12.2841 51.5872 11.2747L51.5862 10.0274ZM57.7263 14.6013L54.1676 4.68351H56.5356L58.8742 11.5319H58.9027L61.2128 4.68351H63.5951L58.2647 19.6317H55.8966L57.7263 14.6013Z" fill="black"/>
</g>
<defs>
<clipPath id="clip0_308_1747">
<rect width="64" height="22" fill="white"/>
</clipPath>
</defs>
</svg>
