<svg width="59" height="20" viewBox="0 0 59 20" fill="none" xmlns="http://www.w3.org/2000/svg">
<path fill-rule="evenodd" clip-rule="evenodd" d="M16.2433 16.8679C14.4266 18.7461 12.0069 19.7778 9.50049 19.7429C6.98164 19.7843 4.54785 18.7524 2.71932 16.8679C1.85896 15.9606 1.17494 14.8745 0.70782 13.6742C0.240699 12.4739 0 11.1838 0 9.88043C0 8.57704 0.240699 7.28693 0.70782 6.08663C1.17494 4.88633 1.85896 3.80029 2.71932 2.89293C4.54552 0.997244 6.98392 -0.0413805 9.50815 0.00126307C12.0145 -0.0336133 14.4342 0.99809 16.251 2.87626C17.1123 3.78302 17.7972 4.86887 18.2649 6.06925C18.7326 7.26964 18.9737 8.56005 18.9737 9.86376C18.9737 11.1675 18.7326 12.4579 18.2649 13.6583C17.7972 14.8587 17.1123 15.9445 16.251 16.8513M9.50815 3.21793C8.70811 3.20952 7.9148 3.37747 7.17608 3.71166C6.43737 4.04585 5.76856 4.53935 5.21003 5.16237C4.65149 5.78539 4.21481 6.52502 3.92633 7.33662C3.63784 8.14823 3.50354 9.01499 3.53152 9.8846C3.53152 10.736 3.68572 11.5791 3.9853 12.3657C4.28488 13.1523 4.72399 13.867 5.27755 14.469C5.83111 15.071 6.48827 15.5486 7.21153 15.8744C7.93479 16.2002 8.70997 16.3679 9.49282 16.3679C10.2757 16.3679 11.0509 16.2002 11.7741 15.8744C12.4974 15.5486 13.1545 15.071 13.7081 14.469C14.2617 13.867 14.7008 13.1523 15.0003 12.3657C15.2999 11.5791 15.4541 10.736 15.4541 9.8846C15.482 9.01781 15.3486 8.15384 15.062 7.34447C14.7754 6.53511 14.3415 5.79702 13.7862 5.17447C13.231 4.55192 12.5658 4.05773 11.8307 3.72153C11.0956 3.38532 10.3056 3.21403 9.50815 3.21793ZM38.625 2.32626L31.3381 20.0013L30.9244 19.9179C28.8402 19.5096 28.4188 18.9429 27.4457 16.6429L21.9824 3.70126H19.9289V0.559596H27.6909V3.70126H25.8366L30.2271 14.4096L34.4874 3.70126H32.1887V0.559596H38.625V2.32626ZM56.2484 16.8679C54.4082 18.7163 51.9952 19.7427 49.4902 19.7427C46.9853 19.7427 44.5723 18.7163 42.732 16.8679C41.8717 15.9606 41.1877 14.8745 40.7206 13.6742C40.2534 12.4739 40.0127 11.1838 40.0127 9.88043C40.0127 8.57704 40.2534 7.28693 40.7206 6.08663C41.1877 4.88633 41.8717 3.80029 42.732 2.89293C44.5723 1.04459 46.9853 0.0181522 49.4902 0.0181522C51.9952 0.0181522 54.4082 1.04459 56.2484 2.89293C57.1116 3.79849 57.7982 4.88395 58.2672 6.08449C58.7361 7.28504 58.9778 8.57605 58.9778 9.88043C58.9778 11.1848 58.7361 12.4758 58.2672 13.6764C57.7982 14.8769 57.1116 15.9624 56.2484 16.8679ZM49.5439 3.21793C48.7435 3.20956 47.9498 3.37749 47.2107 3.71158C46.4716 4.04568 45.8023 4.53904 45.2432 5.16193C44.684 5.78482 44.2466 6.52436 43.9573 7.336C43.6679 8.14764 43.5327 9.01458 43.5596 9.8846C43.5596 10.736 43.7138 11.5791 44.0134 12.3657C44.3129 13.1523 44.752 13.867 45.3056 14.469C45.8592 15.071 46.5163 15.5486 47.2396 15.8744C47.9628 16.2002 48.738 16.3679 49.5209 16.3679C50.3037 16.3679 51.0789 16.2002 51.8022 15.8744C52.5254 15.5486 53.1826 15.071 53.7361 14.469C54.2897 13.867 54.7288 13.1523 55.0284 12.3657C55.328 11.5791 55.4822 10.736 55.4822 9.8846C55.5111 9.01822 55.3787 8.15443 55.093 7.34509C54.8072 6.53576 54.374 5.79759 53.8194 5.17491C53.2647 4.55224 52.6001 4.05791 51.8654 3.72161C51.1306 3.38531 50.341 3.21399 49.5439 3.21793Z" fill="#4B2489"/>
</svg>
